<svg xmlns="http://www.w3.org/2000/svg" version="1.1" xmlns:xlink="http://www.w3.org/1999/xlink" xmlns:svgjs="http://svgjs.com/svgjs" viewBox="0 0 20 20" width="20" height="20"><g transform="matrix(0.8333333333333334,0,0,0.8333333333333334,0,0)"><path d="M.75,6.75V8.767a9,9,0,0,0,.644,3.342L2.25,14.25,3.75,9l1.5,5.25.856-2.141A9,9,0,0,0,6.75,8.767V6.75" fill="none" stroke="#000000" stroke-linecap="round" stroke-linejoin="round" stroke-width="1.5"></path><path d="M9,6.75V8.767a9,9,0,0,0,.644,3.342L10.5,14.25,12,9l1.5,5.25.856-2.141A9,9,0,0,0,15,8.767V6.75" fill="none" stroke="#000000" stroke-linecap="round" stroke-linejoin="round" stroke-width="1.5"></path><path d="M17.25,6.75V8.767a9,9,0,0,0,.644,3.342l.856,2.141L20.25,9l1.5,5.25.856-2.141a9,9,0,0,0,.644-3.342V6.75" fill="none" stroke="#000000" stroke-linecap="round" stroke-linejoin="round" stroke-width="1.5"></path><path d="M15 23.25L9 23.25 9.75 18.75 14.25 18.75 15 23.25z" fill="none" stroke="#000000" stroke-linecap="round" stroke-linejoin="round" stroke-width="1.5"></path><path d="M6.75 23.25L17.25 23.25" fill="none" stroke="#000000" stroke-linecap="round" stroke-linejoin="round" stroke-width="1.5"></path><path d="M0.75 0.75L23.25 0.75" fill="none" stroke="#000000" stroke-linecap="round" stroke-linejoin="round" stroke-width="1.5"></path><path d="M0.75 18.75L23.25 18.75" fill="none" stroke="#000000" stroke-linecap="round" stroke-linejoin="round" stroke-width="1.5"></path></g></svg>